<svg id="_1" data-name="1" xmlns="http://www.w3.org/2000/svg" viewBox="0 0 360 120.68"><defs><style>.cls-1{fill:#ed1c24;}.cls-2{fill:#fff;}.cls-3{fill:#2e3192;}</style></defs><title>logonationwide</title><rect class="cls-1" width="360" height="120.68"/><path class="cls-2" d="M309.63,355c0-2.35.81-3.53,2.43-3.53s2.52,1.18,2.52,3.53V379.6H326V355q0-7.2-3.46-11t-10-3.84q-6.56,0-10.49,4t-3.94,10.54v25h11.46Zm30.31,25.59a11.2,11.2,0,0,0,5.51-1.25,12.84,12.84,0,0,0,4.18-4.2,10,10,0,0,0,9.15,5.45,10.72,10.72,0,0,0,8.1-3.27,11.77,11.77,0,0,0,3.14-8.48V341.05H358.55v25.08c0,2-.56,3.05-1.69,3.05a1.24,1.24,0,0,1-1.22-.62,6.37,6.37,0,0,1-.31-2.43V341.05H343.87v25.28c0,1.9-.57,2.85-1.7,2.85a1.22,1.22,0,0,1-1.2-.59,6.47,6.47,0,0,1-.3-2.46V341.05H329.21v26.8q0,6.16,2.76,9.44T339.94,380.56Zm44.71-39.51H373.19V379.6h11.46ZM441,379.6h9v-11h-7.71a6.13,6.13,0,0,1-2.66-.38,1.72,1.72,0,0,1-.65-1.6,1.77,1.77,0,0,1,.64-1.53,3.86,3.86,0,0,1,2.16-.45h7.48v-8.58h-6.32a5.11,5.11,0,0,1-2.51-.44,1.67,1.67,0,0,1-.71-1.57c0-1.28,1-1.92,3-1.92H450V341.05H427.9V367.8q0,5.73,3.36,8.77T441,379.6ZM188.2,370.42h5.14v9.18h11.47V354.69q0-7.45-3.25-11c-2.16-2.38-5.51-3.57-10-3.57q-7,0-10.92,3.94t-3.88,11.06V379.6H188.2Zm0-15c0-2.67.9-4,2.68-4a2.09,2.09,0,0,1,1.93.88,6.57,6.57,0,0,1,.53,3.13v4.81H188.2Zm211.08-3.33h3.87q9.86,0,9.86,7.88,0,8.38-10,8.39h-1.84l5.24,11.38a19.4,19.4,0,0,0,12.72-5.48q5.65-5.54,5.65-14.29,0-9.15-6.61-14.49-5.56-4.45-15.39-4.46H387.82V379.6h11.46ZM216.65,379.6h11.47V352.12h8.75V341.05h-29v11.07h8.78ZM157.16,355c0-2.35.81-3.53,2.43-3.53s2.51,1.18,2.51,3.53V379.6h11.47V355q0-7.2-3.46-11t-10-3.84q-6.56,0-10.5,4t-3.94,10.54v25h11.47Zm117.59,25.59a20.25,20.25,0,0,0,14.39-34.51,19,19,0,0,0-14.05-6A20.06,20.06,0,0,0,260.48,346a20.25,20.25,0,0,0,14.27,34.6Zm-6-26.52a8.28,8.28,0,0,1,12,0,9.2,9.2,0,0,1,0,12.57,8.28,8.28,0,0,1-12,0,9.13,9.13,0,0,1,0-12.54Zm-17.23-13H240V379.6h11.47ZM122.73,393.34v47.5H473v-47.5Z" transform="translate(-117.84 -325.05)"/><path class="cls-3" d="M197,424q0,5.34,3.13,8.18c2.09,1.88,5.1,2.83,9.05,2.83h8.4V424.72h-7.18a5.56,5.56,0,0,1-2.48-.36,1.6,1.6,0,0,1-.61-1.49,1.62,1.62,0,0,1,.6-1.42,3.58,3.58,0,0,1,2-.42h7v-8H211a4.8,4.8,0,0,1-2.34-.41,1.58,1.58,0,0,1-.66-1.46c0-1.2.92-1.79,2.76-1.79h6.82V399.05H197Zm116,0q0,5.34,3.13,8.18c2.09,1.89,5.12,2.83,9.07,2.83h8.4V424.74h-7.19a5.59,5.59,0,0,1-2.48-.36,1.6,1.6,0,0,1-.6-1.49,1.63,1.63,0,0,1,.59-1.42,3.62,3.62,0,0,1,2-.42h7v-8H327a4.8,4.8,0,0,1-2.34-.41,1.58,1.58,0,0,1-.66-1.46c0-1.2.92-1.79,2.77-1.79h6.82V399.05H313Zm-46.65-24.95a14,14,0,0,0-5.64,1.19,12.86,12.86,0,0,0-4.56,3.24,11.08,11.08,0,0,0-2.29,4,19,19,0,0,0-.67,5.48v22H263.5V411.88c0-2,.8-3,2.4-3s2.38.73,2.38,2.18-1,2.38-3.11,2.38l3.85,9a10.66,10.66,0,0,0,6.58-2.79,11.07,11.07,0,0,0,3.21-8.25,11.85,11.85,0,0,0-3.58-8.78A12.1,12.1,0,0,0,266.38,399.05Zm38.25,20.87a11.24,11.24,0,0,0,3.26-8.37,12,12,0,0,0-3.64-8.91,12.27,12.27,0,0,0-9-3.59,14.25,14.25,0,0,0-5.72,1.2,13,13,0,0,0-4.62,3.29,11.28,11.28,0,0,0-2.33,4,19.1,19.1,0,0,0-.68,5.56V435h10.43V420.17L299,435h10.94L304,420.51C304.19,420.32,304.42,420.13,304.63,419.92ZM295,414a3.17,3.17,0,1,1,3.17-3.17A3.17,3.17,0,0,1,295,414Zm54.41-9.91c-6.05,6.7-.2,18.74-12.56,18.74v12.1s11.24,2,18-7.23.13-17.56,11.24-17.56l-1.91-10.85S355.41,397.39,349.36,404.1Zm47.38-4.8S388,397.39,382,404.1s-.2,18.74-12.56,18.74v12.1s11.24,2,18-7.23.14-17.56,11.25-17.56Zm-158.68,6.94a2.64,2.64,0,1,1-5.27,0v-7.19h-12v7.74a14.54,14.54,0,0,0,4.15,10.2,14.56,14.56,0,0,0-4.15,10.2v7.74h12v-7.19a2.64,2.64,0,0,1,5.27,0v7.19h12v-7.74a14.61,14.61,0,0,0-4.15-10.2,14.59,14.59,0,0,0,4.15-10.2v-7.74h-12Z" transform="translate(-117.84 -325.05)"/></svg>